<?xml version="1.0" encoding="UTF-8"?>
<svg id="Layer_1" xmlns="http://www.w3.org/2000/svg" version="1.1" viewBox="0 0 597.65 207.06">
  <!-- Generator: Adobe Illustrator 29.7.1, SVG Export Plug-In . SVG Version: 2.1.1 Build 8)  -->
  <g id="_x31_ASMkh.tif">
    <g>
      <path d="M7.87,20.22c1.55-2.2,2.6-.2,4.39.49,1.64.63,3.11,1.25,4.7,1.89,1.09.44,2.22.3,3.12.58.54.16,1.31,1.19,2.02,1.4,3.65,1.11,7.37,2.34,10.89,3.6,3.86,1.37,7.77,2.8,11.75,4.09,2.34.76,4.38,1.51,6.64,2.33,2.67.96,5.53,1.47,8.04,2.64.55.26,2,.35,2.73.57,7.17,2.21,14.76,5.24,21.63,7.12,2.22.61,4.23,1.24,6.33,1.85,1.48.43,4.7,1.71,5.78,1.88.29.05.52-.4.89-.37.69.05,1.66.86,2.35,1.08s1.4.04,2.07.3c.31.12.29.6.49.62.5.07.98-.31,1.49-.23.54.08,3.25,1.44,4,1.67,2.18.68,5.05.76,7.07,1.51.57.21,1.94,1.28,2.47,1.44s2.15,0,3.01.2c1,.23,2.19,1.02,3.15,1.28,5.99,1.65,12.22,2.76,18.12,4.6,3.12.98,6.6,1.64,9.51,2.89,1.14.49,3.85.69,5.13.94,2.84.56,5.39,1.44,8.14,1.93,4.83.85,9.59,2.33,14.35,3.28,4.18.84,8.41,2.3,12.48,3.34,1.4.36,2.99.59,4.43.88l.34-.06c.09-.29.09-.63.29-.88,2.53-3.16,4.73-6.43,7.26-9.63.62-.79.06-.58,1.09-1.4,1.72-1.38.85-1.16,1.69-2.41.67-1,2.26-2.25,3.02-3.31,1.25-1.75,1.85-2.92,3.32-4.58,1.69-1.9,2.83-3.87,4.43-5.86,1.93-2.41,3.94-4.58,5.78-6.74.22-.26.34-1.3.85-1.92,2.3-2.78,5.09-5.24,7.57-7.87,1.08-1.15,2.01-1.71,2.98-2.67.63-.62,1.48-2.41,2.18-2.96.46-.36,1.1-.2,1.63-.61.76-.6.72-1.75,1.31-2.38.91-.94,3.75-2.77,4.96-3.67.9-.67,1.78-1.12,2.38-1.58.47-.36.51-.93,1.33-1.38,2.03-1.12,9.19-3.07,11.38-2.84.38.04.67.46,1.08.51,1.67.21,6.77,1.01,8.02.4,6.49-3.21,12.36-3.44,19.14-5.25,1.03-.28,2.01.42,2.88.38,1.79-.1,2.86-.57,5.02-.46,1.88.09,2.58-.24,3.95-.27,1.49-.04,3.86.49,5.34.41.43-.02.7-.47,1.26-.48.62-.02,1.15.52,1.85.57.75.05,1.39-.31,2.09-.29,3.29.1,7.21,1.2,10.34,1.51.62.06,1.67-.28,2.27-.13.5.12.85.62,1.16.67.93.15,3.16-.13,4.43.08.61.1,1.15.69,1.33.69s2.98-.98,3.31-1.13c.68-.31,1.99-2.24,2.76-.62,1.6-1.66,3.57-1.3,5.51-1.61,1.26-.2,3.42-1.05,4.52-1.03.57,0,2.55.85,3.45,1.03,1.27.25,3.72-.11,3.54,1.35,1.25-.25,3.24.23,4.53.61,5.87,1.74,14.7,6.92,18.82,11.51,5.8,6.46,11.33,13.12,16.21,19.92,4.55,6.34,8.76,13,13.68,18.76,1.28,1.5,2.55,2.89,4,4.45,1.06,1.15.83,1.27,1.58,2.37.69,1.02,3,3.45,3.96,4.49s1.84,1.14,3.29.9c.7-.11,1.01-.65,1.61-.77,4.76-.95,9.52-2.43,14.35-3.28,2.75-.49,5.3-1.36,8.14-1.93,1.45-.29,3.24-.39,4.72-.82.81-.24,1.15-.84,1.66-1,.79-.23,2.8-.57,3.89-.83,7.42-1.81,15.04-3.74,22.49-5.79.96-.26,2.15-1.05,3.15-1.28.87-.2,2.46-.03,3.01-.2s1.91-1.23,2.47-1.44c2.67-.99,6.56-1.35,9.52-2.35.55-.18,1.12-.77,1.55-.83.5-.08.99.3,1.49.23.2-.03.18-.5.49-.62.66-.26,1.4-.08,2.07-.3s1.65-1.03,2.35-1.08c.37-.02.6.42.89.37.28-.04.59-.52.97-.63,3.81-1.01,7.39-2.08,11.13-3.1,1.22-.33,1.29-.31,2.42-.51.18-.03,1.35-.96,1.97-1.17,3.35-1.15,7.03-2,10.38-3.07,4.14-1.33,8.41-2.99,12.41-3.94,2.35-.56,4.59-1.55,6.86-2.37,5.53-2,11.29-3.74,16.75-5.68,3.52-1.26,7.25-2.48,10.89-3.6.71-.22,1.49-1.24,2.02-1.4,2.65-.81,5.2-1.45,7.82-2.47,1.51-.58,3.19-2.78,4.12-.49v.79c-.72.95-.77,2.57-1.31,3.5-.97,1.67-2.72,2.51-3.82,3.62-.28.29-.33.86-.66,1.19-1.56,1.54-3.77,1.8-5.26,2.91-4.84,3.62-8.85,5.28-14.31,7.84-2.96,1.39-4.61,2.42-7.75,3.6s-6.33,2.65-9.28,3.91c-12.04,5.17-24.32,9.51-36.74,13.64-.22.07-.41.54-.72.62-.43.11-.9-.29-1.23-.25-.23.03-.19.59-.61.76-.87.37-2.62.48-3.66.83-1.21.4-2.65.94-3.88,1.4-3.8,1.42-8.87,3.32-12.89,4.03-1.25.22-4.29,2.08-5.44,2.18-.51.04-.98-.3-1.47-.17-.45.11-.84.98-1.5,1.17-4.08,1.15-8.12,2.22-12.23,3.37-1.45.4-1.89.46-3.41.76-.66.13-1.37.85-1.97.96-.47.08-.97-.22-1.08-.18-.12.05-1.48,1.24-2.08,1.46-.76.29-1.64.09-2.19.23-4.66,1.25-8.83,2.66-13.44,3.92-.36.1-.73.5-1.03.55-.45.08-.75-.42-1.16-.36s-1.24,1.01-1.95,1.21c-.78.22-2.26.2-3.04.39-.7.16-1.44.39-2.14.55s-3.88,1.01-3.87,1.88,2.21,2.65,2.51,3.31c1.16,2.57,2.96,4.56,4.38,7.23.36.67.73,2.13,1.02,2.61.21.35.93.24,1.3.88.32.56.17,1.49.44,1.93s1.04.29,1.28.85c.37.87-.11,1.41.03,2.06.35,1.73,2.64,4.82,2.94,6.84.13.88-.34,1.26-.31,1.71.03.37,1.15,2.32,1.21,3.19.04.54-.6,1.67-.72,2.42-.16.93.05,1.9-.3,2.81,1.02,1.26,2.07.6,2.99.68,2.9.26,6.81,1.68,9.78,2.22s7.57.15,9.76,2.22l2.48-.24c.02-2.16,1.18-4,1.78-6,.84-2.77.75-3.53,2.16-6.08.81-1.47,1.42-4.26,3.18-4.68,3.6-.86,12.21-1.36,15.91-.83,1.8.25,2.66.73,3.03,2.51.53,2.56.05,5.98-1.13,8.22-2.34,4.44-7.35,4.78-10.99,7.67-.46.36-.94,1.1-1.52,1.45,0,1.08,5.01,1.1,5.92,1.2,4.57.48,9.56.83,14.2,1.89,3.47.79,6.64,1.61,10.17,2.25,14.25,2.59,28.44,4.98,42.48,8.09.95.21,2.5.12,3.66.6,2.9,1.21,5.64,1.32,8.66,2.42.52.19.78.72,1.31.81,1.37.25,1.35-.58,2.1-1.06,1.71-1.09,5.97-3.32,7.91-3.18.57.04.95.4,1.36.45,1.58.2,4.46.4,5.61,1.57.59.6,1.18,1.45,1.85,2.1,1.22,1.19,2.49,2.22,3.11,4.01s0,3.64.6,5.34v2.11c-.6.85-.56,2.21-.98,3.1-.23.49-1.8,1.59-1.87,1.71-.14.25.03.67-.12.92-.43.74-4.49,3.28-5.49,3.62-.78.27-5.71.97-6.4.88-.63-.09-2.05-.6-3.16-.8-1.17-.21-1.4-1.07-2.17-1.78-.54.38-.59,1.2-.92,1.64-1.27,1.72-2.99,3.37-4.34,5.23-2.3,3.17-4.89,5.74-7.94,8.16-2.48,1.97-4.99,4.3-7.5,6.21-2.11,1.6-7.96,4.21-10.56,5.26-.84.34-2.1.4-2.69.67-1.2.55-.38.42-2.12.84-7.15,1.73-13.95,2.89-21.42,3.65-13.29,1.35-27.06-.67-39.72-5.15-5.19-1.83-7.21-2.75-11.46-6.21-.6-.49-1.74-.71-2.1-1.33-.29-.5-.71-3.42-.68-4.09.16-3.44.3-6.81.63-10.23.11-1.1.62-2.92.62-3.79,0-1.06-.09-1.98.08-3.09.45-2.96.74-6.14,1.49-9.06.39-1.52,1.05-3.14,1.12-4.71.06-1.31-2.64-.71-3.77-1.2-.41-.18-.38-.71-.55-.71-.47-.01-1.56.49-2.14.46s-1.51-.6-2.4-.66c-2.32-.16-2.86-.41-5.03-.83-.69-.13-1.58.57-2.32-.58l-.24.5c-.88-.12-1.98-.52-2.79-.64-1.23-.18-3.01.12-3.58.04-.15-.02-1.9-.95-2.67-1.12-1.34-.29-3.04-.02-4.12-.15-.62-.07-1.27-.87-1.7-.95s-.82.24-1.23.19c-.9-.1-1.67-.64-2.42-.75-1.8-.27-5.19-.2-6.78-.61-.66-.17-1.15-.88-1.38-.9-.32-.03-.78.41-1.29.37s-1.81-.73-2.43-.83c-1.63-.26-3.04.49-4.7-.71-.42-.3-.31-.83-.68-.76l-.15.54-1.57-.81c-.96,1.81-2.34-.17-2.63-.19-.2-.01-.5.35-.79.36-.35,0-1.47-.42-2.04-.53-2.65-.48-5.46-.89-8.17-1.27-1.3-.18-2.84-1.17-3.89-1.13-.44.01-.7.45-1.18.41-.24-.02-4.41-.96-4.75-1.07-3.85-1.25-5.99-.82-9.97-.19-1.16.19-2.33.48-3.49.59-.61.06-1.19-.33-1.86.36l-4.5-8.41c-.23-2.34.04-5.38-.22-7.64-.12-1.01-1.48-5.45-1.95-6.25-.32-.54-.41-.7-1.11-.6.55,2,1.9,4.72,2.02,6.76.23,3.89-.55,8.41-.44,12.36.06.34,1.31,1.51,1.59,1.89.2.27.13.77.34,1.06.56.77,1.49.33,1.26,2.33-.1.85-1.94,5.06-2.45,6.01-.32.59-1.25.52-.74,1.74l-.94.27c.44,1.31-.13,1.24-.64,1.99-.62.9-1.23,1.2-1.34,1.36-.3.44-.59,2.24-1.01,2.82-.23.32-.8.33-1.19.72-.64.63-1.34,2.29-2.38,3.43-1.09,1.19-1.76,1.9-2.82,3.25-.43.54-1.19,1.15-1.61,1.83-1.16.19-2.57.62-3.73.62-.33,0-.72-.3-1.13-.35-2.4-.31-6.79-1.11-9.17-.85-1.95.21-2.85,3.44-3.26,5.17-.96,4.08-1.88,9.14-2.43,13.39-.36,2.74.38,5.94-1.4,8.23-.45.58-1.81.85-2.3,1.52-.84,1.13-.12,2.76-1.91,3.62-1.75.84-1.55-.18-2.83,1.86-.58.92-.2.43-.49,1.38-.32,1.03-1.78,1.94-2.79,2-.46.03-2.87-.21-3.42-.3-.81-.13-2.32-1.19-2.48-2.03-.13-.73.25-2.12.22-2.84-.04-1.08-.72-2.22-.26-3.56l-1.83.29c.12,2.04,0,4.08-.36,6.09-.07.37-.51.74-.58,1.22-.07.51.3.96,0,1.62s-1.62,1.1-2.22,1.48c-.26.17-.35.64-.56.76-.62.36-1.99,0-2.63.66h-1.06c-.31-1.36-.61-.32-1.39-.56-.34-.1-.54-.61-.84-.66-.55-.09-2.83.62-3.71.68-1.53.11-2.7.11-4.24.25-3.39.31-4.72-1.65-7.42-2.24-1.38-.3-2.41.68-3.84.36-1.19-.27-1.88-2.2-3.02-2.53-1.65-.47-3.55.78-4.23-1.83-.48-1.83-.44-2.27-1.53-4.01-.62-1-1.07-1.4-1.72-2.03-.1-.09-1.23-2.24-1.26-2.4l1.56-8.64c-1.58-3.56.12-7.1-1.41-10.47-.56-1.24-1.13-2.21-1.71-3.56-.28-.65-1.17-1.07-1.45-1.72-.52-1.23.06-1.94-1.9-2.31-4.36-.83-11.64,1.42-14.76-2.38-.53-.64-.98-1.8-1.48-2.47-.2-.26-.78-.4-1.05-.79-.38-.55-.31-1.34-.67-1.97s-1.33-1.24-1.81-1.88c-.33-.44-2.05-2.71-2.13-2.88-.2-.42-.02-.97-.19-1.27-.07-.12-.61-.24-.86-.58-.38-.5-.42-1.26-.8-1.84-.46-.69-1.78-1.65-2.09-2.13-.46-.72-1.93-4.31-2.19-5.2-.4-1.39-.55-2.39.09-3.73.8-1.67,2.93-3.31,3.47-5.49.41-1.65-.26-3.45-.12-4.65.09-.83,1.22-1.5-.35-2.15,1-1.09.26-1.99.3-2.92.19-4.42,2.27-8.5,3.93-12.49-.18-.19-1.4.7-1.59.92-1.83,2.05-3.89,6.1-4.8,8.65-1.21,3.4-1.35,5.38-.99,9,.05.52.48.95.53,1.6.13,1.68-.53,1.95-1.19,3.05s-1.21,2.01-1.99,3.02-2.63.47-4.02.73c-3.82.71-7.54,1.83-11.39,2.61-3.05.62-6.1.69-9.13,1.38-.69.16-2.4.92-2.79.96-.48.04-.74-.39-1.18-.41-1.05-.03-2.59.95-3.89,1.13-2.71.38-5.52.79-8.17,1.27-.57.1-1.69.53-2.04.53-.28,0-.59-.37-.79-.36-.3.02-1.67,2-2.63.19l-1.57.81-.41-.54c-.85,2.13-3.52,1.21-5.13,1.47-.62.1-1.92.79-2.43.83s-.96-.4-1.29-.37c-.23.02-.72.74-1.38.9-.87.22-3.45.42-4.68.59-1.62.24-4.29.29-5.75.57-.43.08-1.08.88-1.7.95-1.08.13-2.78-.14-4.12.15-.77.17-2.53,1.1-2.67,1.12-.39.05-1.1-.42-1.61-.4-.41.01-.71.36-1.09.41-1.19.16-2.48.21-3.67.6l-.24-.5c-.74,1.15-1.62.45-2.32.58-2.17.42-5.28,1.38-7.43,1.49-.59.03-1.68-.47-2.14-.46-.17,0-.14.53-.55.71-1.12.48-3.83-.11-3.77,1.2.08,1.57.73,3.18,1.12,4.71.75,2.92,1.04,6.1,1.49,9.06.52,3.4.65,7.61.92,11.33.14,1.85.32,3.86.41,5.78.03.66-.39,3.59-.68,4.09-.36.62-1.5.84-2.1,1.33-7.67,6.22-15.53,7.74-25,9.82-5.35,1.18-11.95,2.22-17.47,2.04-10.64-.35-19.95-1.69-30.14-4.16-1.74-.42-.92-.29-2.12-.84-1.37-.63-4.09-1.22-5.66-1.92-1.32-.59-3.02-1.92-4-2.33-4.54-1.86-7.34-4.9-11.09-7.88-3.05-2.42-5.64-4.99-7.94-8.16-1.35-1.86-3.07-3.5-4.34-5.23-.33-.45-.37-1.26-.92-1.64-.78.71-1,1.56-2.17,1.78-2.55.47-4.47.84-7.2.46-1.9-.27-6.91-2.52-7.85-4.15-.15-.25.03-.67-.12-.92-.06-.1-1.6-1.2-1.79-1.57-.49-.95-.34-2.56-1.32-3.24v-2.11c1.06-.45.23-1.51.29-2.21.29-3.56,1.31-4.82,3.68-7.14.69-.67,1.89-2.27,2.64-2.63,1.17-.55,5.94-1.63,7.17-1.41,2.17.39,5.06,1.91,6.92,3.1.75.48.73,1.3,2.1,1.06.53-.1.79-.63,1.31-.81,3.02-1.1,5.75-1.21,8.66-2.42,1.16-.48,2.7-.39,3.66-.6,14.04-3.11,28.23-5.5,42.48-8.09,5.38-.98,10.55-2.27,16.15-3.12,2.73-.42,5.56-.74,8.22-1.02.91-.1,5.92-.12,5.92-1.2-.58-.35-1.07-1.09-1.52-1.45-3.64-2.88-8.65-3.22-10.99-7.67-1.17-2.23-1.65-5.66-1.13-8.22.37-1.78,1.23-2.25,3.03-2.51,3.7-.52,12.31-.02,15.91.83,1.75.42,2.36,3.2,3.18,4.68,1.41,2.55,1.32,3.31,2.16,6.08.61,2.02,1.66,3.88,1.92,6.02l2.34.21c2.19-2.07,6.69-1.66,9.76-2.22,7.86-1.43,15.26-3.36,23.2-3.83,2.95-.17,2.68-1.53,3.51-3.6.12-.3.5-.29.64-.69.22-.65.08-1.38.22-1.82.1-.3.61-.25.75-.62.16-.44,0-1.08.22-1.62.16-.4.71-.44.99-.87,1.03-1.6,1.5-3.73,2.36-5.43.11-.22.79-.5.93-.83,1.14-2.66,3.18-5.86,4.84-8.28.79-1.15,1.47-2.93,2.19-3.88s2.41-1.6,2.51-3.3c.04-.72-.61-.26-1.13-.46-3.02-1.18-5.35-1.36-8.45-2.11-1.3-.32-3.69-1.65-4.61-1.73-2.59-.22-3.07-.95-5.52-1.55-1.43-.35-3.7-.51-5.18-.94-.71-.2-1.55-1.15-1.95-1.21s-.71.44-1.16.36c-.29-.05-.67-.45-1.03-.55-4.61-1.26-8.78-2.67-13.44-3.92-.55-.15-1.43.05-2.19-.23-.6-.23-1.96-1.42-2.08-1.46-.12-.04-.61.26-1.08.18-.6-.1-1.32-.83-1.97-.96-1.52-.3-1.97-.36-3.41-.76-3.77-1.06-8.93-2.03-12.41-3.44-.52-.21-.91-.99-1.32-1.1-.49-.12-.96.22-1.47.17-1.14-.09-4.18-1.96-5.44-2.18-5.73-1.01-11.27-3.61-16.77-5.43-1.04-.34-2.79-.46-3.66-.83-.41-.17-.38-.73-.61-.76-.33-.04-.8.36-1.23.25-1.01-.25-3.26-1.62-4.33-2.01-7.8-2.83-15.88-5.02-23.52-8.13-6.31-2.56-12.64-5.7-18.88-8.03-3.14-1.17-4.78-2.21-7.75-3.6-5.46-2.56-9.47-4.22-14.31-7.84-.84-.63-2.66-1.12-3.6-1.68s-5.57-5.04-6.15-6.05-.48-2.73-1.57-3.5v-.79ZM364.43,15.02c-3.61-1.59-7.71-3.13-11.39-4.06-1.27-.32-7.17-1.87-7.92-1.77-.84.11-1.26.61-1.87.72-2.05.38-3.29-.2-5.97.58-1.61.47-5.6,1.64-7,2.68-.27.21-.4.9-.88,1.11-.31.14-.7-.11-1.05-.01-1.23.34-1.41,1.46-2.51,1.98l-.39-.52c.04,1.35-1.84,1.9-2.14,2.29-.99,1.25-.6.52-1.48,1.22-.61.48-.41,1.46-.46,1.53-.21.25-.74.16-.87.3-.1.11-.8,2.5-.83,2.74-.3,2.76,1.24,6.41,1.22,9.17-.02,2.28.19,3.42.36,5.56.24,3.17-.28,5.58-.72,8.49-.19,1.27-.02,2.93-.06,4.18-.06,2.04-.7,2.35-1.28,3.75-.59,1.43-.68,2.85-2.17,3.89-.43.3-1.06.29-1.27.46-.26.21-.08.87-.21,1.24-.19.5-2.35,2.29-3.01,3.05-1.21,1.41-2.5,2.28-3.82,3.57-.36.35-.46,1.21-1.05,1.6-.71.46-.98.03-1.55.08-.98.09-2.66.46-3.49.44-.77-.02-1.07-.66-1.63-.77-.67-.13-1.24.33-2.2.12-1.32-.29-4.36-1.83-5.74-2.45-.44-.2-1.33-.2-1.58-.4s-.14-.79-.49-1.02c-.58-.36-1.76-.17-2.56-.8-.55-.43-.48-.89-.77-1.21-.4-.43-1.46-.76-2.04-1.26-.54-.47-2.16-2.64-2.51-3.29-.12-.21-1.6-4.18-1.65-4.42-.22-1.01,0-2.42-.32-3.51l.52.27v-.66c-.02-.1-.43-.08-.51-.33-.73-2.19-1.52-6.52-1.36-8.91.05-.83.87-1.6.27-2.87l1.07-.55c.13-.7-.74-.17-1-.81-.03-.08-.07-1.55-.08-1.81-.03-1.74-.1-3.31.14-5.02.2-1.38.12-1.56.16-2.85.04-1.16,1.09-2.63.64-3.6-.04-.09-1.16-1.48-1.24-1.53-.31-.17-.87.04-1.27-.18-.45-.26-.36-1.11-.59-1.39-.15-.18-.78-.29-1.13-.58-.31-.26-.45-.93-.82-1.04-.35-.1-1.18.32-2,.18-2.44-.42-5.35-2.75-8.06-2.77-5.42-.54-11.21-1.04-15.98,2.07-3.24,2.11-10.38,8.02-12.67,10.79-1.2,1.46-.98.83-1.69,1.37-.24.19-2.47,2.88-2.83,3.34-.26.34-.95.83-1.04,1.06-.1.26.2.74.13.8-.09.07-.61-.09-.86,0s-.43.93-1.52.52l.53.39c-.5,1.15-2.09,1.69-2.4,2.08-.42.54-.06,1.35-.47,1.9-.24.31-.9.36-1.22.63-.24.21-1.87,1.78-1.94,1.9-.14.25.16.64.13.88-.08.56-2.22,1.49-2.8,2.18-.7.82-2.59,3.14-3.13,3.92-.32.46-.32,1.29-.69,1.68-.35.36-1.06.33-1.46.91-.34.5-.27,1.26-.49,1.57-.16.23-.6.08-.74.21-.22.22-.96,1.54-1.52,2.04-.75.67-1.65,1.2-2.51,1.72l1.32-.13c.13,1.2-1.15,1.2-1.6,1.7-.2.22-.21.67-.41.92-6.47,7.81-11.66,16.02-17.65,24-.71.95-1.92,2.66-2.42,3.52-.67,1.16-.79,2.58-1.83,3.59-.19.18-.7.17-.83.35-.19.26-.1,1.22-.46,1.78-.87,1.33-2.99,3.5-3.77,4.93-.4.73-.4,1.67-.71,2.2-.74,1.28-2.37,3.67-3.24,4.92-1.01,1.46-2.21,2.86-2.78,4.56-.79,2.37-.91,2.75-2.39,4.79-.84,1.16-.44,1.68-.73,2.69-.12.42-.7.66-.93,1.18-.31.69-.21,1.66-.53,2.37-.24.52-.81.8-1.06,1.32-.32.66-1.33,3.24-.99,3.77.81,1.27,2.96.56,3.98,1.28.12-.34.73-.69.82-.85,1.04-1.73,1.91-4.19,2.84-5.99,2.13-4.13,4.66-8.11,6.95-12.3.22-.4.2-1.11.38-1.33.21-.26.97-.28,1-.33.03-.04-.32-.51-.23-.86.11-.43,1.75-2.73,2.12-3.43,4.22-7.96,8.62-15.57,13.56-23.1,4.12-6.29,8.65-12.46,13.51-18.38.66-.8,1.45-1.8,1.9-2.73l1.31.79-.53-1.19.67-.92,1.44,1.71-1.31.66c.68,1.38,1.64-.62,2.51-.79,1.97-.38,4.15.34,6.07.31.25,0,.6.27.65.21-.93-2.49.37-2.61,1.28-4.12.44-.73.63-1.77,1.1-2.59.81-1.44,2.37-2.67,3.29-4.09l.52.52c.72-.33.53-1.3.92-1.72.42-.44,1.93-1.01,2.11,0,.46,2.52-.29,2.32-1.16,4.11-.29.6-.42,1.8-.77,2.27-.21.28-.77.31-1.04.94-.34.79-.04,1.5-.24,2.14-.15.5-3.41,2.26-.89,2.55l10.76.3c2.03.66,2.21,3.87,0,4.38-.42.1-2.54.03-3.09-.03-2.62-.27-4.1-1.61-6.65-1.94-.6-.08-2.93-.21-3.26.03-.23.69-.76,1.21-1.06,1.84-.95,2-1.28,4.22-2.04,6.13-.28.7-.71,1.77-1,2.43-.24.53-1.47,1.86-2.09,1.84-1.1-.03-2.25-1.71-1.71-2.69,1.17-2.12.34-3.72.96-5.68.19-.59.72-.92.83-1.28.15-.52-.05-1.09.19-1.66.12-.27,1.61-1.42,1.45-1.58-3.11-.95-6.07,1.28-8.92,2.05-.43.11-.9-.2-1.12-.08-.1.05-1.25,1.5-1.42,1.73-2.32,3.24-4.53,6.47-6.75,9.81-.28.42-1.19.87-1.43,1.26-.76,1.22-1.57,3.14-2.46,4.41-.57.82-1.89,1.73-1.91,2.96.56-.17.57-.83.89-1.22.18-.22,2.13-1.99,2.27-2.06.18-.09,2.25-.38,2.52-.37,1.11.04,3.74.49,4.87.89s2.09,1.31,2.84,1.71c1.72.91,5.39,1.49,7.24,1.91.78.17,2.16,1.03,2.78,1.2,5.67,1.54,13.94-1.5,18.41-4.96,5.79-4.48,10.87-9.45,15.17-15.41,4.32-3.64,6.69-8.77,10.66-12.28,1.14-1,2.6-1.37,4.1-1.3-.26-1.07.03-2.52-.06-3.5-.06-.67-.49-1.59-.58-2.53-.14-1.48-.04-3.35-.14-4.87-2.47-.95-.7-3.31-3.26-4.71-1.21-.66-2.51-.4-3.24-.7-.52-.21-.55-.64-.72-.74-.43-.25-.97-.21-1.38-.6-.68-.64-1.28-3.61-1.97-4.1-.3-.21-.88-.14-1.25-.34-.45-.24-.77-.82-1.26-.86-.37-.03-.76.25-1.08.24-.46-.01-.88-.26-1.28-.23-.86.05-1.56,1.08-2.91.8l-.27-.81c-.91.63-2.9,2.51-3.82,2.79-.7.21-1.53-.17-1.94.08s-.52,1.31-.96,1.75c-1.64,1.63-3.5,1.86-5.46,2.71-8.39,3.63-13.66,13.79-19.94,19.55-.85.78-1.53,2.64-2.65,2.33-2.65-.73,1.09-3.75,1.82-4.54.17-.18.14-.61.36-.82.38-.36,1.09-.28,1.26-.46s.11-.77.31-1.08c1.33-1.97,4.08-4.43,5.82-6.12.69-.67,1.12-2.06,2.38-1.98l-.27-1.05c1.23-.07,1.73-1.56,2.49-2.39,5.17-5.6,11.42-11.34,17.42-16.07.29-.23.41-.78.66-.92.21-.13,3.05-.5,3.61-.56.33-.04.74.22.96.18.29-.05.25-.69.58-.78.23-.06.87.27,1.31.26,4.57-.15,11.05,2.81,14.39,5.89.95.88,1.58,2.19,1.81,3.46.2,1.1-.05,2.39.04,3.36.79,8.56,1.23,16.53,2.81,24.64.28,1.43.55,4.35,1.27,5.58.24.42,1.01.74,1.44,1.19.33.35.47,1.14.79,1.32.35.2.89.08,1.31.27.37.17.66.78,1.08,1.03,4.94,2.91,14.81,5.63,20.6,6.04,2.38.17,4.32-.2,6.43-1.4,1.32-.75,2.44-2.12,4.08-2.38.27,1.12-.89,1.78-1.17,2.39-.81,1.78-1.35,4.04-1.8,5.84-.63,2.54-6.05,4.43-8.08,6.42-.45.44-1.12,1.34-.68,1.96,1.97-.61,4.12-1.52,5.95-2.49,1.1-.59,3.04-1.64,4.02-2.24.31-.19.67-1.17,1.11-1.6,1.29-1.24,3.6-1.6,4.23-3.68.69-2.28.72-5.47,1.5-7.73.22-.62,1.63-2.33,1.74-2.76.16-.57-.18-1-.15-1.28.03-.26.59-.31.73-.56,4.16-7.47,3.8-13.71,3.67-21.82-.04-2.59-.15-3.72-.45-6.14-.21-1.75-.14-5.91.26-7.24.61-2.05,1.52-3.32,2.39-5.02.29-.56.25-1.58.74-2.15.39-.45.99-.43,1.17-.68.22-.31.16-1.21.37-1.74.55-1.4,2.11-2.84,3.53-3.33,3.33-1.16,7.16-1.88,10.59-2.81,7.55.38,14.01,2.18,20.43,6.19,2.98,1.86,4,3.12,6.37,5.5,7.89,7.94,13.44,16.67,19.9,25.99,1.94,2.8,3.68,5.74,5.83,8.41,6.28,7.79,14,14.05,19.9,22.04,3.01,4.07,5.84,8.37,8.69,12.65,2.24,3.35,3.99,6.88,6.17,10.32,1.59,2.51,2.72,4.08,4.1,6.84.76,1.51,2.62,3.07,2.92,5.01.12.76-.33,1.41-.28,2.09.09,1.51.67,3.03.55,5-.05.75-1.21,4.25.72,3.38.7-.31,1.81-3.46,1.87-4.22.07-.96-.29-2.43-.22-3.64.05-.85.53-1.79.41-2.5-.2-1.2-1.57-3.01-1.94-4.68-.1-.45.2-.87.14-1.21-.09-.58-2.9-5.66-3.35-6.42-.26-.44-.32-1.33-.59-1.6-.23-.23-.79-.17-.94-.38-.35-.49-.48-2.44-.71-2.85-.28-.47-2.35-2.58-2.63-3.17-1.44-3.1-1.76-4.11-3.96-6.85-2.82-3.53-4.73-7.04-7.91-10.3-2.64-2.71-4.87-6.27-7.66-8.95-.39-.38-1.16-.48-1.47-.9-.77-1.02-2.08-4.26-3.23-5.08-.32-.23-.91-.14-1.19-.4-.25-.23-.18-.97-.86-1.17l.54-2.2c-.7.28-.76.66-.53,1.32-.14.16-2.89-2.51-3.14-2.8-1.25-1.44-2.58-3.13-3.83-4.61-1.05-1.24-1.12-1.88-1.82-2.79-.29-.37-.99-.47-1.3-1.21-.22-.51-.09-1.12-.27-1.45-.26-.48-1.96-1.59-2.42-2.19-.59-.77-.85-1.94-1.4-2.82-4.93-7.81-10.9-14.25-16.95-21.29-1.81-2.1-6.9-6.65-9.3-7.7ZM313.59,11.25c-1.01-.41-2.06-.23-2.97-.32-6.27-.68-12.3-.71-18.53-.47-.5.02-1.03-.32-1.58-.29-.78.04-1.11.69-1.64.78-.58.09-1.11-.47-1.79-.51-2.32-.16-8.91,1.22-11.47,1.74-.75.15-1.8-.09-2.61.43-.1.4-.17,1.66.35,1.74.33-.1.68-.25,1.03-.19,2.38.37,5.55,1.47,7.96,1.59.73.04,1.42-.35,2.04-.24.65.12.98.83,1.44.96.82.24,2.29.15,3.3.39,2.29.55,3.59,2.38,6.15,2.05.78-.1,1.01-.56,1.62-.75.48-.15,1.03.02,1.65-.2.76-.27,2.8-2.69,3.6-3.25,2.19-1.52,6.99-2.02,9.65-2.74l1.79-.71ZM28.87,29.56c-3.71-1.48-7.44-2.81-11.15-4.28-.33-.13-4.86-2.69-4.82-1.24.33.7,1.33.81,1.71,1.19.76.76.37.57,1.49,1.4.97.72,4.18,2.8,5.34,2.54.27-.06-.01-.76.69-.52l.25,1.21c1.5-.26.85.19,1.48.61.54.36,1.35.22,1.9.46,1.01.44,3.17,2.19,4.3,2.58,6.02,2.04,11.86,4.65,17.86,6.67,3.91,1.32,7.94,3.02,11.88,4.49.61.23,1.24.05,1.81.26.83.29,1.82,1.37,2.46,1.54.57.15.96-.18,1.4-.11.36.05,4.42,1.38,5.28,1.63.9.27,2.01,1.4,3.08,1.63.45.1.87-.2,1.16-.12.35.1.31.7.61.77.36.09.86-.09,1.25,0,3.48.84,6.69,2.59,9.96,3.49,2.5.68,6.09,1.25,8.45,2.1.79.29,2.32,1.61,2.77,1.73.66.18,1.15-.25,1.72-.16s1.73.94,2.31,1.13c6.8,2.22,13.96,3.88,20.57,6.06,1.94.64,3.54,1.11,5.47,1.65,1.65.46,1.3.54,2.24.94,1.62.69,5.65,1.42,7.34,1.61.83.09,3.61,1.31,4.73,1.61,1.51.4,4.33.62,5.55,1.07.49.18,1.29,1.26,2.03,1.39.48.08.92-.22,1.23-.16.27.05.76.71,1.46.88,3.08.73,6.05,1.17,9.05,2.24,2.21.79,4.79,1.2,7.25,2.01,2.19.71,4.48,1.19,6.72,1.75,4.08,1.02,7.78,1.98,11.88,2.89.57.13,1.09.66,1.77.45-.18-1.06.63-1.19.9-1.59.61-.89,1.16-1.83,1.78-2.72.38-.55,1.05-.92,1.28-1.88-5.07-1.54-10.26-2.67-15.47-3.78-3.54-.75-7.23-2.04-10.85-2.86s-7.43-1.46-10.96-2.27c-4.9-1.12-9.75-2.5-14.48-3.67-4.05-1-8.4-2.81-12.55-3.48-1.95-.32-3.97-1.09-6.08-1.58-5.54-1.28-11.52-3.13-17.16-4.77-.82-.24-1.61-.88-2.36-1.06-1.66-.41-4-.53-5.62-.98-.66-.18-1.02-.89-1.12-.92-.27-.08-.97.15-1.31.05-9.91-2.77-19.9-6.04-29.5-8.87-4.34-1.28-10.02-3.31-14.18-4.81-2.71-.98-5.58-1.59-8.15-2.66-4.76-1.97-9.87-3.66-14.62-5.55ZM582.84,26.21c.23-.21.21-.72.47-.98.38-.38,1.38-.49,1.71-1.19.01-1.45-4.43,1.08-4.82,1.24-4.81,1.9-9.65,3.74-14.43,5.61-6.06,2.38-12.34,4.18-18.19,6.6-2.21.91-4.63,1.15-6.87,1.83-3.57,1.08-8.12,3.39-11.39,4.19-2.98.73-6.05,1.29-9.08,2.26-6.26,2.02-12.77,3.74-18.97,5.62-.1.03-.47.74-1.12.92-1.62.44-3.97.57-5.62.98-1.44.35-3.58,1.32-5.3,1.82-6.4,1.86-14.05,4.58-20.3,5.6-4.15.68-8.5,2.49-12.55,3.48-4.74,1.17-9.58,2.55-14.48,3.67-1.62.37-3.03.92-4.57,1.28-1.87.45-4.33.52-6.4.99-3.38.77-7.63,2.44-10.86,2.86-.46.06-1.08.16-1.49.35.65.49,1.21,1.21,1.78,1.73,1.11,1,.57.58,1.38,1.72.09.12,1.99,2.02,2.12,2.09,1.5.84,2.47-.51,3.41-.8,2.99-.91,6.22-1.25,8.92-2.21,3-1.07,5.98-1.51,9.05-2.24.71-.17,1.19-.83,1.46-.88.31-.06.74.25,1.23.16.75-.13,1.54-1.21,2.03-1.39,1.67-.61,5.9-1.2,7.73-1.53.64-.11,1.59-1.04,2.55-1.15,1.51-.17,2.5-.28,4.04-.7,2.02-.55,3.67-1.33,5.54-1.85,3.91-1.09,7.95-2.61,11.73-3.57,4.79-1.22,9.67-2.63,14.31-4.15.58-.19,1.73-1.04,2.31-1.13s1.06.34,1.72.16c.45-.12,1.98-1.45,2.77-1.73s2.39-.42,3.29-.67c3.27-.89,6.27-1.86,9.39-2.75,1.04-.29,2.24-1.22,3.42-1.59,1.11-.34,2.59-.37,3.56-.6.3-.07.26-.67.61-.77.29-.08.71.22,1.16.12,1.07-.23,2.18-1.36,3.08-1.63.86-.26,4.92-1.58,5.28-1.63.44-.07.83.26,1.4.11.64-.17,1.63-1.25,2.46-1.54,2.91-1.02,5.88-1.93,8.82-3.02,8.2-3.05,17.05-5.85,24.79-9.81.54-.28,1.88-1.01,2.23-1.16.55-.24,1.36-.1,1.9-.46.63-.42-.02-.87,1.48-.61l.25-1.21c.71-.24.42.46.69.52,1.16.26,4.37-1.82,5.34-2.54.31-.23.85-.27,1.02-.42ZM375.75,37.18c-.28-.35-1.64-1.81-2.01-1.41.05.7-.32,2.03-.68,2.62-.81,1.31-1.73.8-1.93,3.35-.29,3.88,1.92,8.18,1.83,11.58-.06,2.42-.67,4.46-1.17,6.69-.58,2.56-.18,5.58-3.93,4.71-1.13-.26-2.22-2.15-3.35-2.58-.4,1.4.83,1.67,1.26,2.56.65,1.36,1.16,4.14,2.03,5.62.1.17.66.05,1.07.49.69.73.36,1.27.42,1.31.12.09.61.04.9.28.64.52,1.2,2,2.17,2.65,2.67,1.79,6.02,4.25,9.11,5.6.77.33,1.77.34,2.29.61.83.43,1.56,2.81,2.2,3.47.59.6,1.4.51,1.95.82,2.09,1.21,3.12,2.82,5.55,3.42,2.3.57,3.85,1.32,5.8,1.85,1.35.36,5.91.17,7.2-.33s2.23-1.84,3.69-2.38c.26-.1.62.06.79,0,.8-.28-.44-.54-.51-.82-.08-.31.24-.79.19-1.23-.24-2.04-2.66-3.6-3.63-5.13-2.41-3.78-4.68-6.82-7.8-10.09-1.01-1.06-1.5-1.83-2.37-2.89-.57-.7-1.36-1.21-1.78-2.04l-7.04-.87c-.05,1.61-.48,3.24-.86,4.81-.13.53-.56.83-.71,1.4-.29,1.15,0,3.95-1,4.56-.78.48-1.67,0-1.82-.88l1.74-10.94c-3.14,1.06-6.25-.5-9.38-.8-.52-.05-1,.28-1.51.22-.6-.07-1.94-.9-1.78-1.65.18-1.99,6.15-1.51,7.52-1.74.44-.07.74-.48,1.33-.54,1.25-.12,2.17.98,3.56.28.41-.49-1.26-6-1.3-7.02-.05-1.59.4-.9-.11-2.78-.09-.34.14-.83.05-.95-.3-.43-1.34-.19-.76-1.64-1.09.48-1.03-.94-1.41-1.49-1.97-2.81-3.66-5.96-5.8-8.7ZM282.2,50.8h-.52v.79h.52v-.79ZM390.03,59.58c-.25-.11-.47-.1-.73-.08l-.25,1.03,2.09.82c.21-.2-1-1.71-1.11-1.76ZM352.19,106.88c-.31-.37-.25-1-.79-1.19-.47-.08-.95-.02-1.41-.17-3.14-1.02-6.11-1.88-9.17-2.96-1.49-.53-3.03-.39-4.55-.73-1.7-.39-3.26-.77-4.94-1.12-5.18-1.09-10.67-1.73-15.82-2.38-2.78-.35-4.86.06-7.65-.27s-5.83-.15-8.65-.08c-4.94.12-9.94.62-14.76.81-.36.01-1.19.21-1.46.41-.46.33.78,1.39.8,1.84,1.55.69,2.58,2.43,3.8,3.58.36.33,4.07,2.92,3.57,3.41-1.89-.83-3.39-2.45-5.27-3.3-4.95-2.21-9.37-2.18-14.62-2.79-.63-.07-1.21-.5-1.88-.52-3.67-.11-9.25,2.87-13.1,3.26-.82.89-5.02,1.67-5.42,2.36-.17.28-.09,1.13-.31,1.67-.43,1.11-1.96,2.28-2.08,3.74-.05.64.39.97.47,1.53.11.75-1.16,4.57-1.56,5.22-.15.24-.52.15-.53.18-.07.11.37.44.45.73.16.58.66,2.67.73,3.18.15,1.09-.72,2.13.16,3.34-.05.65-.76.54-.82.83-.06.35.32,1.91.28,2.61-.06.97-.43,3.04-.96,3.81-.06.08-1.34,1.42-1.43,1.47-.64.35-1.45-.26-2.12-.14.47-.72-.37-1.54-.25-1.95.08-.27.6-.33.79-.61.67-.99,1.17-2.2,1.28-3.4.05-.53.35-1.64-.49-1.42.21,1.04-.62,1.19-.89,1.61-.93,1.43-1.51,3.08-2.54,4.45.45,0,.63.27.85.6.91,1.35,1.36,3.63,2.21,5.18,2.46,4.53,5.53,9.05,8.35,13.27.72,1.07.21.92,1.4,2.04.2.19.28.6.46.72.36.26,2.68.65,3.21.62,1.74-.1,2.68-1.42,4.95-.78,2.11.6,4.91.74,7.46,1.03,1.06.12,2.01-.53,2.77.39.46.56,1.04,2.35,1.35,2.72.12.14,2.31,1.16,2.71,2.15.1.24-.17.61-.08.74.08.12.56.16.77.44.35.46,1.28,2.01.92,2.52l-.78.24c-1.99-2.92-2.94-6.54-7.28-6.17.4,1.17,1.77,1.53,2.3,2.05.8.78,3.01,7.86,2.95,8.98-.05.97-.64,1.91-.76,2.7-.21,1.45.94,4.38,1.43,5.92.16.51,1.29,1.48,0,1.85l-1.18-.8-.55,6.17c1.38.28,1.65,1.08,2.34,2.19.88,1.41,2.51,3.79,2.16,5.35,2.58-.57,2.73.95,4.42,2.07l3.04-.97c.88.76,2.11,1.8,3.28,2.01,1.07.19,2.44-.32,3.3-.14,1.08.22,2.53,1.18,4.03,1.36,1.61.2,3.09-.88,4.48-.92.91-.03,1.46.65,2.38.79,1.14.17,3.85.27,4.36-.87,1.25-2.78-.12-7.05-1.35-9.65.14-.12,2.37.03,2.89-.12.74-.21,1.28-.92,2.02-1.11,1.51-.37,3.02.73,4.19.58.24-.03,2.63-2.03,2.25-.02-.04.2-.58.26-.8.53-1.48,1.83-1.05,5.02-1.06,7.26.87-.05,1.73.2,2.52-.25,1.27-.72.94-2.17,1.46-3.24.23-.49,1.29-1.44,1.58-2.16.49-1.22.21-2.75.9-3.84.72.02.5,4.13.66,4.74l1.57-4.37,1.3.19c.28.31-.43,1.54.56,1.29.54-1.99.29-4.25.54-6.18.05-.41.37-.76.41-1.11.76-5.92.53-16.25,5.29-19.93.18-.14.56-.89.22-.99l-2.37,1.05c-1.17-1.34.31-1.41.79-1.83.33-.29.37-.73.84-1.02.43-.26,1.79-.59,2.32-.6,3.48-.09,6.62,1.82,9.78,2.12.63.06,2.09-.13,2.58-.5.07-.05.92-1.38.92-1.47,0-.11-.5-.59-.62-.92-1.01-2.84-.47-2.86,1.19-4.88.27-.33.3-.87.64-1.2.49-.48,1.19-.39,1.7-.67,3.39-1.81,5.51-4.44,8.2-7.1-.28-1.26-.97.23-1.18.4-1.6,1.32-3.05,2.75-4.6,4.11-1.37-.02-8.18.44-8.72-.15-.46-.49.85-.78,1.11-.86,1.59-.48,4.46-.68,5.73-1.41.44-.26,3.21-3.54,3.72-4.18.33-.42.33-1.05.66-1.45.79-.93,1.72-.09,1.95-2.02.33-2.83-.31-8-.4-11.09s.36-6.5-.42-9.39c-.34-1.26-2.25-3.87-2.99-5.19-.9-1.6-.83-2.2-2.14-3.79ZM441.27,112.23l-.4-.52h-.39s0,.79,0,.79l.79-.27ZM121.48,112.86c-1.13-.68-3.68-.29-5.04-.35-1.11-.06-2.32-.27-3.44-.28s-6.03-.11-6.72.42c-.74.57-.36,2.98.05,3.48.15.18.8.29,1.13.58.38.33.5.81.86,1.06,3.39,2.32,6.07.78,9.3,1.71,1.92.55,1.69,1.32,2.88,2.4.36.32.96.36,1.2.65.19.23,2.63,4.88,2.71,5.2,1.36,5.76,1.93,12.15,2.53,18.04.37,3.63,1.72,9.18.24,12.54-.58,1.31-5.17,6.44-6.4,7.31-6.76,4.78-13.56,9.68-21.17,13.11-8.36,3.77-18.37,6.72-27.47,7.34-2.31.16-3.06.04-5.1-.47-1.92-.48-4.25-.57-6.29-.83-2.77-.35-6.07-.03-8.41-1.62l-.26.54c-.81-.35-1.65-.43-2.5-.68-.27-.08-.84-.38-.79.13.5.21,1.34.35,1.76.62s1.62,1.89,1.73,1.96c.54.3,2.85,1.12,3.83,1.58,5.61,2.62,11.91,3.19,18.13,3.23,3.69.02,7.4-.22,10.65-2.01,3-1.65,4.69-3.13,8.34-3.53,7.07-.77,18.96-2.84,25.21-5.12.66-.24,2.26-1,2.77-1.45.3-.27,1.52-1.7.53-1.58-1.21.14-2.35.99-3.47,1.28-3.37.87-7.47,1.36-10.93,1.98-1.16.21-2.72,1.42-3.68.02.24-.31.54-.52.86-.71,6.26-3.8,12.36-6.05,18.19-10.75,2.41-1.94,7.4-7.08,8.69-9.84,2.74-5.89-.4-20.45-2.35-26.75-1.32-4.25-3.35-11.18-5.3-14.73-.73-1.33-.56-3.47-2.25-4.48ZM491.58,116.12c.41-.51.79-2.91.05-3.48-.69-.53-5.56-.43-6.72-.42s-2.33.22-3.44.28c-2.61.13-4.95-.82-6.39,2.02-.9,1.78-1.47,3.98-2.11,5.81-3.78,10.85-7.87,21.45-7.45,33.18.11,3.04.71,5.3,2.53,7.75,2.97,3.99,7.87,8.13,12,10.95,4.07,2.78,9.1,4.61,13.37,7.2.33.2.63.41.86.71-.96,1.4-2.51.19-3.68-.02-3.47-.62-7.56-1.11-10.93-1.98-.79-.21-5.62-2.7-3.2.03,1.14,1.29,2.94,1.47,4.44,1.85,1.08.28,3.03,1.34,4.4,1.71,2.73.74,6.14.82,8.98,1.31,3.43.6,6.96,1.59,10.42,1.97,3.65.4,5.33,1.88,8.34,3.53,3.25,1.79,6.96,2.03,10.65,2.01,6.22-.04,12.52-.61,18.13-3.23.99-.46,3.3-1.27,3.83-1.58.11-.06,1.33-1.69,1.73-1.96s1.26-.41,1.76-.62c.04-.51-.53-.21-.79-.13-.85.24-1.68.32-2.5.68l-.26-.54c-2.34,1.59-5.64,1.27-8.41,1.62-2.04.26-4.37.35-6.29.83-2.04.51-2.79.63-5.1.47-12.52-.86-29.79-6.98-40.19-14.41-1.71-1.22-3.19-2.78-4.95-4.01-2.34-1.64-4.85-2.97-6.8-5.07-.33-.36-2.96-3.95-3.11-4.28-1.48-3.36-.13-8.91.24-12.54.59-5.9,1.17-12.28,2.53-18.04.36-1.55.96-1.63,1.43-2.39,1.19-1.95.72-1.86,2.48-3.46,1.97-1.79,1.52-2.52,4.91-2.77,1.04-.08,2.96.29,4.08.1.18-.03,3.16-1.4,3.32-1.52.21-.15.38-.68.73-.98s.98-.4,1.13-.58ZM165.88,123.84l-35.34,5.54c-.2,1.61.78,3.03,1.23,4.42.19.59.16,2.79,1,2.87.38-.05.76-.37,1.13-.4,7.61-.72,15.28-2.04,22.87-2.71.93-.08,2.15-.5,2.94-.51,1-.01,2.06.92,3.17,1.05.8.09,2.02-.3,2.32-.22.36.1.41,1.06,1.35,1.01.44-.02.75-.4,1.09-.42.76-.05,4.31.05,4.93.18.19.04.12.81,1.06.53.18-.05.14-.49.35-.53,1.45-.28,4.35.35,6.02.38,2.76.04,9.42.16,11.81-.44.87-.22,1.55-1.15,2.83-.73-.41-.9-1.72-.24-2.51-.24-3.12,0-6.01-.9-9-1.07-1.29-.07-2.66.2-4.14-.07-.75-.14-.58-.69-1.09-.75-1.37-.16-2.73.34-3.93.27-.88-.06-1.69-.65-2.44-.77-.62-.09-1.7.3-2.03.18-.58-.21-.97-1.11-1.4-1.18-.56-.09-1.3.45-2.27-.07-.68-.37-.99-2.82-.97-3.57.02-.69,1.16-1.81,1.02-2.75ZM467.37,129.38l-23.73-3.7-.66,3.43c-.27.47-1.37.49-1.8.77-.28.18-.32.6-.57.8-.86.72-3.52.59-4.95.87-2.72.53-5.79,2.15-8.27,2.56-1.1.18-2.02-.7-3.13-.52-.52.08-.85.59-1.4.73-2.07.54-5.85,1.15-7.84,1.26-.49.03-1.27-.39-1.73,0,3.9,2.03,8.16,1.03,12.27.72,1.29-.1,3.16.12,4.5-.04.52-.06.36-.57.88-.7.8-.2,1.34.17,1.71.1.31-.06.5-.58.88-.69.58-.17,1.87.41,2.31.36,2.75-.26,5.85-2.14,8.94-1.64,5.37.86,12.1,2.51,17.49,2.8.98.05,1.8-.54,2.87.2.84-.08.81-2.3,1-2.87.45-1.39,1.43-2.81,1.23-4.42ZM118.13,131.48l-6.59,1.45c.3.69,1.5.68,1.79.98.23.24.18.82.42,1.17.27.38,2.85,2.75,3.24,2.95,1.27.63,2.94.77,4.31,1.1.19-.76-.51-.98-.72-1.52-.38-.95-.8-2.95-1.22-3.78s-1.51-1.01-1.22-2.35ZM486.37,132.8c-2.27-.02-4.38-.89-6.59-1.32.3,1.34-.81,1.55-1.22,2.35s-.84,2.82-1.22,3.78c-.21.53-.91.75-.72,1.52,1.45-.33,3.14-.48,4.47-1.2.33-.18,2.84-2.52,3.08-2.84.25-.35.19-.93.42-1.17.31-.32,1.63-.28,1.79-1.11ZM111.21,136.03c-.21-.21-.7-.21-.97-.47-.97-.92-1.28-1.87-3.07-1.95-.6-.03-3.68.49-4.36.66s-1.31.77-2.08.77c.46.65,1.31.79,1.86,1.31.64.6,2.33,3.13,2.9,3.42.66.34,1.83.31,2.63.55,4.12,1.27,5.58,1.91,8.27,5.31.48.6,1.16.25.96,1.78-.24,1.81-2.25,1.66-3.69,1.74.23.21.76,1.21.85,1.26.36.21,4.28-.18,4.95-.32.86-.18,1.78-1,2.91-.68-.38-.58-1.25-1.1-1.7-1.6-3.32-3.75-6.11-8.46-9.45-11.78ZM497.19,134.91c-1.87-.25-4.32-1.3-6.23-1.3s-2.24.95-3.28,1.94c-2.37,2.25-4.62,4.64-6.56,7.47-1.14,1.66-2.46,3.21-3.86,4.78-.45.5-1.32,1.02-1.7,1.6.46.01.94-.05,1.39.06,1.08.28,2.4.86,3.51.98.36.04,2.84.03,2.96-.04.08-.05.61-1.04.85-1.26-1.43-.08-3.45.07-3.69-1.74-.2-1.53.48-1.18.96-1.78,1.32-1.68,2.29-2.74,3.98-3.89.37-.25,3.61-1.22,4.29-1.43.79-.24,1.96-.21,2.63-.55.58-.29,2.25-2.82,2.9-3.42.58-.54,1.53-.65,1.86-1.43ZM101.16,139.22c-.85-.88-4.18-3.12-5.31-3.15-.32,0-3.33.62-3.89.75-.91.22-1.66,1.06-2.84.73l.31.75c2.13-.69,2.57,2.15,3.39,2.55.47.23,1.2.12,1.79.32,1.89.64,3.49,1.74,5.11,2.27.59.2,1.35.08,1.81.31.17.08,2.49,2.21,2.78,2.5,2.46,2.4,2.64,4.81-1.46,4.76-.75.73,2.05.94,2.41.91.97-.1,3.11-1.15,3.79-1.15.64,0,1.22.76,1.32.77,1.39.06-.97-1.23-1.06-1.31-2.23-2.01-4.4-5.39-5.92-7.79-.48-.76-1.68-2.65-2.21-3.19ZM508.79,137.55c-1.18.34-1.93-.51-2.84-.73-.56-.14-3.57-.76-3.89-.75-1.16.03-4.58,2.35-5.41,3.26-1.19,1.31-2.04,3.81-2.88,4.88-.28.35-.73.26-1.09.64-1.33,1.41-2.17,3.67-4.07,5.35-.43.38-1.07.45-1.45.92.54.78.93-.38,1.71-.38.68,0,2.82,1.06,3.79,1.15.36.04,3.16-.18,2.41-.91-4.1.05-3.92-2.36-1.46-4.76.29-.28,2.61-2.41,2.78-2.5.46-.23,1.21-.11,1.81-.31,1.62-.54,3.21-1.64,5.11-2.27.59-.2,1.32-.09,1.79-.32.82-.39,1.26-3.23,3.39-2.55l.31-.75ZM93.77,147.65c-.77-1.1-4.41-6.33-5.2-6.79-.48-.28-1.13-.28-1.55-.56s-.49-.78-.99-1.12c-1.84-1.23-4.23-.41-6.14.08-.67.17-1.44-.19-2.11.79,1.45.46,1.63,1.9,2.26,2.75.07.1,1.61,1.65,1.71,1.72.79.52,1.67.26,2.43.47.39.11.68.53,1.18.67,1.61.44,2.89.29,4.62,1.18,1.42.72,4.24,3.02,3.36,4.75l-1.84,1.5c2.18.45,3.7-.98,5.8-.53.02-.48-.72-.3-1-.58-.23-.24-.23-.88-.47-1.24-.7-1.02-1.34-2.08-2.05-3.09ZM520.14,140.18c-.52-1.12-1.46-.74-2.12-.91-1.89-.49-4.54-1.34-6.31.01-1.14.88-1.1.83-2.37,1.58s-5.27,7.25-6.39,8.9c-.33.49-1.24,2.13-1.34,2.22-.28.29-1.02.11-1,.58,2.1-.45,3.62.97,5.8.53l-1.84-1.5c-.88-1.73,1.95-4.03,3.36-4.75,1.74-.88,3.01-.73,4.62-1.18.5-.14.78-.56,1.18-.67.76-.21,1.64.04,2.43-.47.1-.07,1.64-1.62,1.71-1.72.58-.79.81-2.41,2.26-2.62ZM76.65,142.89c-.2-.2-1.18-.6-1.6-.9-.36-.25-.48-.72-.88-.96-1.12-.66-5.69.21-7.1.71-1.25.45.53.71.93.97,1.36.88,1.2,1.31,1.89,2.33.78,1.15,6.59,1.87,7.9,2.91.27.22,1.72,1.68,1.98,1.98.86,1.01,2.03,2.28.8,3.45-.49.47-1.04.33-1.2.77,1.54.6,3.12-.26,4.75,0-1.12-1.24-1.78-2.79-2.64-4.08-.42-.63-1.63-1.53-1.71-1.71-.22-.46-.05-1.04-.27-1.57-.09-.23-2.66-3.72-2.83-3.9ZM531.22,141.77c-1.69-.38-6.28-1.57-7.63-.64-.27.18-.4.63-.72.86-1.38.97-3.85,3.4-4.52,4.98-.16.37.03.95-.19,1.39-.09.18-1.3,1.09-1.71,1.71-.86,1.29-1.53,2.84-2.64,4.08,1.62-.26,3.2.6,4.75,0-.17-.44-.71-.3-1.2-.77-1.23-1.17-.05-2.44.8-3.45.3-.35,1.48-1.53,1.84-1.85,1.47-1.29,6.13-1.51,7.79-2.77.47-.36.8-1.72,2.14-2.61.52-.35,1.48-.16,1.3-.94ZM64.5,143.7c-.24-.17-.68-.07-.95-.23-.55-.32-.61-.95-1.47-.94l-5.14,1.74c.5.45,1.13.55,1.68.97.3.23.94,1.19,1.01,1.22.27.1.68-.23,1.07-.16,2.02.41,6.74,1.78,7.97,3.38.82,1.07.83,4.22-.8,4.48-.85.13-1.84-.47-2.75-.27,1.31,2.3,3.54.68,5.37.87.69.07,1.77.83,2.8.45-1.9-1.4-2.6-3.89-3.85-5.78-.93-1.4-3.69-4.89-4.94-5.74ZM540.97,144.14l-5.14-1.61c-.86-.01-.92.62-1.47.94-2.49,1.44-4.2,3.42-5.89,5.96-1.25,1.88-1.95,4.38-3.85,5.78,1.03.38,2.11-.38,2.8-.45,1.84-.19,4.06,1.43,5.37-.87-.91-.2-1.91.4-2.75.27-1.63-.25-1.62-3.4-.8-4.48,1.23-1.6,5.95-2.97,7.97-3.38.38-.08.79.26,1.07.16.07-.03.71-.99,1.01-1.22.56-.44,1.34-.5,1.68-1.1ZM59.7,151.68c-1.35-2.23-2.94-4.64-5.16-6.07-.45-.29-1.16-.33-1.58-.81-2.01-.23-3.64.78-5.52,1.19l2.38,2.23c2.33.28,5.28.71,6.85,2.63.68.84.74,2.4.02,3.19-.38.42-1.28.22-1.07.77,1.77,2.61,4.61-.15,7.12.92-.59-.54-.83-1.41-1.31-1.98-.86-1.02-1.04-.94-1.72-2.08ZM550.47,145.99c-1.79-.43-3.27-1.2-5.16-1.3-.56.36-1.45.6-1.94.92-2.2,1.41-3.75,3.75-5.07,5.96-.7,1.17-.95,1.17-1.82,2.19-.48.57-.73,1.44-1.31,1.98,2.43-1.12,5.76,1.89,7.12-1.18-1.67-.3-2.06-2.48-1.06-3.7,1.57-1.93,4.53-2.35,6.85-2.63l2.38-2.23ZM24.58,155.67c-.18-.36-.93-2.35-.77-2.58,1.92-1.3,3.21.32,5.04.76.95-.16-.28-3.2-.67-3.78-.34-.51-3.77-2.91-4.12-2.97-.33-.06-.73.27-1.22.16-.4-.09-.72-.64-1.4-.74-.61-.09-3.09.49-3.7.75-.7.3-.68.89-1.17,1.2-.54.35-1.35.25-1.82.55-1,.64-3.11,5.06-2.06,6.12l2.31.33c-.47-2.24,1.39-3.56,3.36-3.91,2.45-.43.28,1.16.06,1.47-1.98,2.76-.32,5.93,2.97,5.53,2.28-.27,2.54-.88,3.63-2.7.08-.21-.37-.06-.44-.2ZM585.23,155.15c1.05-1.06-.98-5.22-1.92-6-.55-.45-1.38-.3-1.96-.68-.44-.28-.5-.86-.98-1.13-.15-.09-2.6-.79-2.87-.83-1.59-.23-1.87.71-2.63.78-.34.03-.72-.25-1.01-.2-.45.08-3.85,2.52-4.23,3.13-.33.53-1.48,3.47-.56,3.62,1.45-.2,2.38-1.51,3.89-1.21,2.04.4,1.09.86.68,1.86-.25.62.02,1.16-.73,1.37.65.38.79,1.68,1.24,2,.34.24,2.39.76,2.87.78,3.64.16,4.61-4.72,1.44-6.47.11-.82.69-.7,1.32-.53,2.04.55,3.52,1.46,3.16,3.83l2.31-.33ZM47.03,149.03c-.61-.58-3.11-1.95-3.94-2.01-1.19-.09-1.55.62-2.61.86-.66.15-1.68-.4-1.48.48l.93.26,1.61,2.4c1.01-.11,4.32-.53,5-.03.06.04.96,1.06.98,1.12.56,1.41-.55,3.56-2.19,3.37l1.18,1.07,6.73-.28c-.61-1.13-1.78-1.86-2.59-2.8-1.15-1.34-2.27-3.13-3.62-4.43ZM558.91,147.83c-1.61.61-2.66-.91-4.08-.81-.35.02-3,1.17-3.38,1.4-1.05.62-3.28,4-4.18,5.05-.81.94-1.98,1.67-2.59,2.8l6.73.28,1.18-1.07c-2.72-.18-3.17-3.63-.65-4.75l4.58.24.32-.87,2.08-2.27ZM38.36,150.85c-.7-.63-1.83-1.81-2.69-1.95-1.14-.19-.79.44-1.21.6-.62.24-2.15,0-2.25.56l.59,1.98c.77-1.46,5.3.68,5.67,1.46l-.53.53c-.15.65.86.16.43.95l-2,2.08c1.24-.76,1.9-.19,3.03-.24.8-.03,1.63-.38,2.35-.29.89.12,1.55.8,2.79.26-.98-.6-1.79-2.38-2.5-2.93-.37-.29-.77.03-1.07-.21-.76-.6-1.8-2.09-2.6-2.81ZM563.07,148.95c-1.47-.64-4.41,2.86-5.58,3.91-1.04.92-1.18.66-1.61,1-.71.55-1.52,2.33-2.5,2.93,1.25.54,1.91-.14,2.79-.26.72-.09,1.55.26,2.35.29,1.13.04,1.8-.52,3.03.24l-2-2.08-.12-.42.53-.14-.51-.91c.37-.77,4.7-2.79,5.55-1.59.64.22.56-1.52.66-1.98-.3-.42-1.56-.18-2.21-.44-.29-.11-.31-.51-.38-.54ZM117.97,163.49c1.48-1.08,1.76-1.86,2.8-2.87,1.65-1.6,3.88-2.62,4.42-5.07.07-.33.31-2.54.28-2.78-.39-2.77-6.11.07-7.79,0-.56-.02-.9-.53-1.46-.41-.31.06-.61.52-.97.63-4.83,1.43-11,1.22-16.02,2.18-3.88.74-8.72,1.38-12.91,1.86-1.5.17-2.29.22-3.72.5-.4.08-.8-.47-1.26-.46-.37,0-.92.55-1.43.67-1.5.36-4.13.46-5.69.62-.96.1-4.76.39-5.28.6-.25.1-.26.61-.53.74h-.39c-.2-1.54-1.53-.24-2.3-.1-2.13.37-5.25.39-7.47.51-3.2.18-6.5.34-9.61.65-.84.09-3.03-.5-3.29.43l.24.88c-.82.29-.54-.84-.83-1.01-1.04-.63-4.79.39-6.16.51-.47.04-3.16.22-3.44.21-.7-.03-1.43-.82-2.49-.23-.09.08,1.13,1.75,1.33,1.98.94,1.06,3.16,2.82,4.34,3.82,4.57,3.87,9.17,7.01,14.71,9.03,1.09.4,3.1,1.63,3.63,2.58h.26c-.06-1.11.7-.24,1.2-.12.21.05.54-.19.73-.15.28.06.23.55.56.7.76.34,2.26.55,3.2.88,5.87,2.05,10.06,3.51,16.54,1.8,5.66-1.49,10.74-3.4,16.23-5.66.99-.41,2.72-.65,3.47-1.02.54-.26.71-1.04.85-1.12.33-.18,1.08.02,1.6-.12.47-.12,1.19-.87,1.77-1.14,5.39-2.51,10.33-6.18,14.88-9.51ZM529.06,158.97c-.21-.17-4.57-.53-5.36-.62-1.56-.16-4.19-.26-5.69-.62-.51-.12-1.06-.66-1.43-.67-.46-.01-.86.54-1.26.46-5.41-1.07-11.39-1.36-16.63-2.36-5.02-.96-11.19-.75-16.02-2.18-.4-.12-.73-.66-1.17-.67-.41,0-.75.42-1.26.44-1.68.07-7.4-2.77-7.79,0-.03.24.2,2.45.28,2.78.54,2.45,2.77,3.46,4.42,5.07,2.03,1.97,3.2,3.14,5.4,4.89,3.2,2.55,8.47,5.72,12.29,7.49.57.27,1.29,1.01,1.77,1.14.52.13,1.27-.07,1.6.12.14.08.31.86.85,1.12.75.36,2.48.61,3.47,1.02,5.5,2.26,10.57,4.16,16.23,5.66,6.47,1.7,10.7.26,16.54-1.8.86-.3,2.72-.61,3.32-.94.17-.1.16-.58.44-.64.36-.07,1.14.22,1.79-.27l.4.54c.3-.73,2.11-1.92,2.89-2.25,1.19-.51,2.45-.72,3.69-1.32,4.13-2.02,8.3-5.11,11.75-8.03,1.19-1.01,3.39-2.75,4.34-3.82.48-.54.87-1.27,1.33-1.85-.97-.82-1.8.08-2.49.1-.39.02-3.09-.18-3.69-.23-1.35-.11-4.84-1.15-5.91-.5-.29.18-.01,1.3-.83,1.01.91-2.14-1.76-1.18-3.04-1.31-4.29-.44-8.81-.44-13.17-.79-1.98-.16-3.95-.4-5.8-1.04l-.41.76h-.39c-.26-.12-.29-.6-.45-.72ZM91.23,153.1c-.53.1-1.82,0-2.11.52.7-.05,1.79.29,2.11-.52ZM508.79,153.37l-2.11-.26c.12.63,1.87.83,2.11.26ZM35.31,156.53c-.71.19-1.77-.67-2.11.26.57-.07,2.28.88,2.11-.26ZM564.71,156.79c-.34-.93-1.41-.07-2.11-.26-.17,1.14,1.54.19,2.11.26Z"/>
      <path d="M289.76,112.33c.69.57,3.06,3.31,3.65,3.33,1.04-.27,1.92-1.2,2.86-1.63,2.2-1.01,6.83-1.08,9.25-.72,1.59.24,2.74.93,4.66.67,1.34-.18,1.74-1.06,2.71-1.54.87-.43,2.19-.58,3.01-.94,3.92-1.71,8.48-4.23,12.91-4.26,1.13,0,2.16,1.44,3.52,1.72,2.92.6,7.36-.34,10.35.97,2.29,1.01,3.76,2.77,5.5,4.26.91.78,4.4,3.22,4.84,4.12.09.18.88,3.32.89,3.54.06,1.85-.39,9.85-1.09,11.28-.59,1.2-2.15,2.45-2.98,3.47-.58.71-1.26,2.25-2.05,2.97-1.54,1.41-2.85.55-4.58.48-6.07-.24-15.93-.38-20.82-4.04-.74-.55-2.78-1.74-2.22-2.66l-.76-.17-4.38-4.59c-.6,1.06,1.72,3.4,1.71,3.82,0,.18-.39.5-.79.26-.21-.13-1.46-1.75-1.64-2.04-1.16-1.87-1.79-4.03-2.23-6.17-.05-.26.25-.67.15-.84-.15-.25-1.58-.8-1.82-2.02-.19-.94,1.72.46,2.38-.14-.58-.77-.34-1.89-.67-2.63-.24-.55-1.02-.79-1.37-1.14-.24-.24-.19-.73-.4-.91-.38-.32-4.08-1.44-4.84-1.63-1.38-.34-2.77-.55-4.17-.75-.98,1.01-3.11,1.46-4.1,2.2-.68.5-.93,1.34-2.13,1.85-.59.25-1.85.23-2.05.43-.33.32-.09,1.22-.16,1.6-.78,4.14-1.51,8.04-3.74,11.77-.75,1.26-5.64,4.75-7.05,5.34-5.54,2.33-15.21,2.11-20.7-.24-.32-.14-.78-.14-.85-.6,1.67.11,3.57.86,5.17,1.02,4.53.46,12.5-1.33,16.73-2.73,3.54-1.17,7.37-3.83,7.91-7.78l-1.88,1.42c-2.18,1.1-5.01,1.83-7.43,1.16s-.59-2.94-.72-3.1l-1.4.26c-.23.07-1.38,3.98-2.37,4.04-1.57-.1-2.59,1.24-3.99,1.79-.87.34-3.13.98-4.09,1.19-1.56.33-3.75.61-5.29.38,1.04-.98,2.85-1.38,4.23-1.96,1.74-.74,4.08-1.61,5.73-2.72,1.07-.72,1.87-1.92,1.91-3.23-.84.34-1.18,1.19-2.05,1.5-1.17.41-3.99.7-5.2.64-.78-.04-.89-.58-1.38-.75-1.98-.69-5.13-1.53-6.91-2.59-.34-.2-1.43-2.09-1.66-2.56s-.11-1.11-.34-1.5c-.18-.31-.87-.41-1.06-.79-.25-.51-.04-1.12-.19-1.66-.47-1.63-2.49-1.88-3.89-2.3-.23,3.84-1.05,7.27-.19,11.13.49,2.2,1.69,4.13,2.55,6.15.11.25.54,1.51-.12,1.17-1.45-1.88-3.01-4.35-3.4-6.72-.49-2.98.14-5.87.11-8.69-.01-1.24-.7-3.44-.68-4.5.05-1.87,4.45-3.52,5.96-4.2,4.21-1.91,7.41-2.76,12.03-3.53,2.68-.45,5.4-.85,7.89-1.08,4.51-.42,9.9,3.39,13.21,6.15ZM352.37,123.31c-1.96.19-2.73,2.39-3.73,3.78-.27.37-.72.5-.98.87-.35.48-.45,1.41-.63,1.61-.29.34-1.83.41-2.18,1.12l-.13-.79-12.92-3.43.26-.79-.9.72-2.26-.2c.63,1.04,1.84,1.56,2.82,2.19.14.09.23.49.5.67.16.1,2.29,1.01,2.42,1.04.65.13,2.7-1.24,4.08-.49.41.22.23.76.65,1.09.45.36,4.39,1.46,3.51,2.35-1.29.34-3.07-1.28-4.04-1.25-1.09.03-1.46,1.13-2.22,1.45-1.55.63-2.88.36-4.32-.23-2-.82-3.89-2.77-5.84-3.98-2.29-1.42-5.97-2.27-8.67-2.67-1.21-.18-3.03.69-2.86-1.49-1.71,1.76.58,1.97,1.46,2.63,2.39,1.8,4.59,5.05,7.11,6.6,1.03.63,3.29.78,3.58,1.83h.52s.12-.5.12-.5c4.67,1.21,9.42,2.03,14.25,1.31,3.76,1.42,7.14-2.26,9.77-4.51.53-1.09.15-2.93.29-3.98.08-.58.59-1.1.61-1.66.03-.92-.63-2.22-.23-3.31Z"/>
      <path d="M309.49,139.28c1.49,2.04,3.29,5.64,4.49,8.04.83,1.67.37,1.69.18,3.04-.6,4.1-.51,7.33-3.03,10.67-.18.23-1.44,2.66-1.74,1.16-.11-.57,1.59-3.58,1.32-4.61-1.07.74-3.7.07-4.37,1.32-.36.67.78,2.24.15,3.17l.53.13-1.06.85c.42,1.66.07,3.22-.78,4.69-.54.93-1.75,2.27-2.24,3.3-.39.82-.22,2.18-1.47,2.76-1.88.87-1.97-3.02-1.78-4.16.13-.76,1.26-2.89,1.78-3.5.84-.99,1.79-.33,2.46-2.28.87-2.56-.01-2.43-.48-4.43-.2-.87-.03-2.04-.2-2.97-.44-2.39-1.8-5-1.78-7.58-.54.47-1.13,2.1-1.29,2.8-.52,2.29.12,3.55-.05,5.48-.07.77-1.75,5.69-2.22,5.69-1.17-.8.08-2.45-.13-3.69l-3.43,1.32c.47,1.04,1.54,1.57.92,2.89-.53,1.13-1.04.1-1.47-.11-3-1.44-5.93-5.17-5.74-8.74.02-.43.62-1.89.63-2.34.05-1.91-1.05-3.86-.61-5.76.24-1.03,1.95-2.93,2.38-3.95.33-.78.25-1.72.62-2.54.57-1.24,1.89-1.51,2.42-2.33.71-1.09.65-3.14,1.26-4.27.42-.77,3.02-2.5,3.88-2.35.68.12.99.85,2.19.72.62-.07,1.17-.47,1.51-.44,1.52.11,3.72,1.82,4.51,3.13,1.05,1.74,1.25,2.97,2.64,4.88Z"/>
      <path d="M278.06,146.17c.5.37,1.33.09,1.66,1.12.25.8-.17,1.28-.09,1.7.07.39.8.66.94,1.14.18.6-.04,1.35.11,2,.26,1.08.95,2.16.99,3.35-1.34-.11-1.12-1.81-1.62-2.73-.23-.43-1.96-2.43-2.36-2.65-.85-.47-1.54-.33-2.42-.5-1.13-.22-2.1-.15-3.12-.35-.74-.14-3.1-1.32-3.28-1.32-.2,0-.86.58-1.39.65-.88.12-1.85-.58-2.79.02-.4.26-.79,2.66-2.21,2.88-.6.09-1.06-.37-1.53-.37-.4,0-.82.36-1.31.37-.59.01-2.31-.23-2.48-.93-.47-1.96,2.93-1.04,3.86-1.98.34-.86.51-2.95,1.12-3.49.18-.16,2.13-1.09,2.48-1.21,1.74-.6,6.65-1.43,8.34-.92s3.04,1.27,4.49,2.38c.29.22.38.7.59.85Z"/>
      <path d="M332.88,146.22c.06.04.69-.32,1.11-.25.16.03.18.37.3.43,2.8,1.58-1.72,1.68-2.82,2.01-.49.15-3.17,1.16-3.29,1.35s-.08.48-.07.71l-.79-.27c-.2.58-1.62,3.34-1.93,3.62-.34.3-2.11,1.07-2.57.75-.09-.07-.76-1.43-.77-1.6-.01-.48.82-2.04,1.02-2.65.22-.67.18-2,.54-2.36.09-.09,1.99-1.39,2.19-1.5.63-.34,1.44-.42,2.13-.77.43-.22.76-.88,1.15-.98.63-.16,1.5.54,2.12.7.35.09.78-.26,1.13-.09.39.19.48.87.55.92Z"/>
      <path d="M318.61,158.38c.28,2.15-.69,4.1-.72,6.2-.03,2.62.9,6.74,1.67,9.22.52,1.7,2.64,6.17,2.77,7.38.08.78-.91,5.23-1.48,5.4-1.23.39-1.1-1.69-.88-2.35l.74-.03c-.41-1.09.38-2.29.23-3.22-.25-1.58-1.55-2.58-2.12-3.7-3.11-6.07-4.61-12.17-1.01-18.26.21-.35.21-.77.8-.65Z"/>
      <path d="M314.2,139.58c.33.41,1.66.87,2.26,1.56.27.31,1.39,2.02,1.56,2.39,1.98,4.2-1.23,10.07-2.85,14.04l-.52-.13c-.33-1.34.31-2.35.5-3.45.52-2.94,1.57-6.81.39-9.57-.33-.76-1.96-2.54-2.15-3.38-.08-.33.16-.7.12-.95-.11-.59-.58-1.25-.43-1.87.34-1.4,1.01,1.23,1.13,1.37Z"/>
      <path d="M283.68,173.43c.44-.13.63.04.89.37-.43,1.11-1.15,2.44-1.44,3.57-.59,2.29.12,5.14-.42,7.76-.13.63-.92,3.42-1.66,3.29-2.73-1.33.31-3.57.27-4.33-.01-.22-.58-.95-.68-1.61-.15-1.07.18-2.23.03-3.33.63-.69,2.68-5.61,3.01-5.71Z"/>
      <path d="M327.84,101.43c.06.37-.47.39-.73.45-2.95.71-4.81.86-7.06,3.23-.65.69-.89,1.57-1.72,2.24-.63.5-3.95,1.95-4.47,1.46,1.68-5.37,8.87-7.25,13.98-7.38Z"/>
      <path d="M329.42,156.53l-.18.79c-1.38.26-3.38,2.14-4.02,3.34-.29.55.04,1.16-.25,1.82-.43.97-2.1,1.69-1.74,3.55-.25.4-.99.23-1.29,0-.28-.21-.72-3.13-.69-3.57.06-.9,2.65-3.58,3.43-3.96.46-.22,1.03-.11,1.5-.35s3.05-1.85,3.24-1.64Z"/>
      <path d="M285.04,163.46c.19.1,2.19,3.09,2.3,3.37.7,1.9-.55,2.12-1.14,3.06-.68,1.08-.8,3.04-2.41,2.99-.28-.27,1.26-2.46,1.29-3.02.05-1.08-.96-1.92-1.03-2.67-.05-.55.28-1.04.25-1.54-.04-.63-1.06-3.11.75-2.19Z"/>
      <path d="M300.67,188.96c-.03-.62.7-.86,1.22-1.03.46-.14,3.8-.93,3.79-.16-.41.76-1.85.87-2.29,1.26s-.47,1.53-.75,2.02c-.37.64-1.24.65-1.38.86-.18.27.05.99-.46,1.26-.8-.1-.2-1.38-.53-2.1-.44-.96-2.52-2.89-3.56-3.3l.14-.66c1.46.14,2.6,1.14,3.82,1.85Z"/>
      <path d="M315.38,184.15c-.37.52-2.04.36-2.28-.38-.22-.68.19-1.24.17-1.8-.04-2.29.48-4.63-.53-6.81-.13-.29-1.19-.61-.74-.96.3-.24.78.09,1.02.42.28.39,1.43,3.76,1.63,4.46.18.63.11,1.18.25,1.81.22.96,1.12,2.34.46,3.27Z"/>
      <path d="M293.81,187.12c-.41.68.25,1.03.28,1.44.01.15-.4.12-.52.35-.4.83-.5,1.84-1.21,2.42-1.03-.42-.45-1.98-.69-2.34-.09-.12-2.34-.6-2.35-1.75-.02-1.68,3.59.65,4.5-.13Z"/>
      <path d="M296.13,175.05c1.04,1.36-.35,3.76-.47,5.21-3.08-.13-.95-3.61-.39-5.27.15-.39.77-.06.86.06Z"/>
      <path d="M287.66,190.47c-.38.32-.79.25-1.2.03-.78-1.26.55-5.26,1.78-3.49.42.6-.08,3.03-.58,3.46Z"/>
      <path d="M278.77,181.84l-.12,3.18c-2.33,1.04-2.09-3.34.12-3.18Z"/>
      <path d="M317.55,133.59c-.27.27-1.06-.51-.79-.79s1.06.51.79.79Z"/>
      <rect x="231.03" y="84.29" width=".79" height=".52"/>
    </g>
  </g>
</svg>